<svg xmlns="http://www.w3.org/2000/svg" viewBox="0 0 120 120">
<defs><radialGradient id="bg" cx="35%" cy="25%" r="85%"><stop offset="0" stop-color="#fff1d6"/><stop offset="1" stop-color="#ffd08a"/></radialGradient><linearGradient id="s" x1="0" y1="0" x2="0" y2="1"><stop offset="0" stop-color="#f5c16c"/><stop offset="1" stop-color="#e09a3c"/></linearGradient></defs>
<circle cx="60" cy="60" r="60" fill="url(#bg)"/>
<ellipse cx="60" cy="104" rx="30" ry="5" fill="#000" fill-opacity=".12"/>
<path d="M26 82 C28 60 40 46 44 50 C48 40 56 44 60 42 C64 44 72 40 76 50 C80 46 92 60 94 82Z" fill="#7cc55a"/><g fill="#e53935"><circle cx="44" cy="56" r="5"/><circle cx="74" cy="54" r="5"/></g><path d="M20 86 C20 64 38 50 60 50 C82 50 100 64 100 86Z" fill="url(#s)"/><ellipse cx="46" cy="68" rx="4.2" ry="5.2" fill="#1a1414"/><ellipse cx="74" cy="68" rx="4.2" ry="5.2" fill="#1a1414"/><circle cx="47.4" cy="66.2" r="1.5" fill="#fff"/><circle cx="75.4" cy="66.2" r="1.5" fill="#fff"/><path d="M52 77 q8 8 16 0 z" fill="#1a1414"/><path d="M57 80 q3 6 6 0" fill="#ff6f8e"/><ellipse cx="36" cy="76" rx="5" ry="3" fill="#ff7a93" fill-opacity=".5"/><ellipse cx="84" cy="76" rx="5" ry="3" fill="#ff7a93" fill-opacity=".5"/>
<ellipse cx="42" cy="22" rx="26" ry="12" fill="#fff" fill-opacity=".14" transform="rotate(-20 42 22)"/>
</svg>
