<svg xmlns="http://www.w3.org/2000/svg" viewBox="0 0 120 120">
<defs><radialGradient id="bg" cx="35%" cy="25%" r="85%"><stop offset="0" stop-color="#ffe5e5"/><stop offset="1" stop-color="#ffadad"/></radialGradient><linearGradient id="s" x1="0" y1="0" x2="0" y2="1"><stop offset="0" stop-color="#ff5a6b"/><stop offset="1" stop-color="#d7263d"/></linearGradient></defs>
<circle cx="60" cy="60" r="60" fill="url(#bg)"/>
<ellipse cx="60" cy="104" rx="30" ry="5" fill="#000" fill-opacity=".12"/>
<path d="M60 102 C36 88 24 66 28 50 C32 34 48 32 60 38 C72 32 88 34 92 50 C96 66 84 88 60 102Z" fill="url(#s)"/><path d="M44 30 C50 22 56 28 60 34 C64 28 70 22 76 30 C70 34 64 36 60 38 C56 36 50 34 44 30Z" fill="#43a047"/><g fill="#ffe082"><ellipse cx="42" cy="56" rx="1.6" ry="2.4"/><ellipse cx="78" cy="56" rx="1.6" ry="2.4"/><ellipse cx="46" cy="80" rx="1.6" ry="2.4"/><ellipse cx="74" cy="80" rx="1.6" ry="2.4"/><ellipse cx="60" cy="90" rx="1.6" ry="2.4"/></g><circle cx="48" cy="60" r="6.5" fill="#fff"/><circle cx="72" cy="60" r="6.5" fill="#fff"/><circle cx="49" cy="61" r="3.6" fill="#1a1414"/><circle cx="71" cy="61" r="3.6" fill="#1a1414"/><ellipse cx="60" cy="74" rx="4" ry="5" fill="#1a1414"/><ellipse cx="40" cy="70" rx="5" ry="3" fill="#ff7a93" fill-opacity=".5"/><ellipse cx="80" cy="70" rx="5" ry="3" fill="#ff7a93" fill-opacity=".5"/>
<ellipse cx="42" cy="22" rx="26" ry="12" fill="#fff" fill-opacity=".14" transform="rotate(-20 42 22)"/>
</svg>
